<svg xmlns="http://www.w3.org/2000/svg" width="800" height="600" viewBox="0 0 800 600">
  <!-- Background -->
  <rect width="800" height="600" fill="#1a1a2e" />
  
  <!-- Movie Screen -->
  <rect x="100" y="50" width="600" height="300" rx="10" fill="#f0f0f0" />
  <rect x="120" y="70" width="560" height="260" rx="5" fill="#333" />
  
  <!-- Movie Projector Light -->
  <polygon points="400,50 350,20 450,20" fill="#f9f9f9" opacity="0.3" />
  
  <!-- Seats -->
  <g>
    <!-- Row 1 -->
    <g transform="translate(150, 400)">
      <rect width="50" height="40" rx="5" fill="#e63946" />
      <rect x="70" width="50" height="40" rx="5" fill="#e63946" />
      <rect x="140" width="50" height="40" rx="5" fill="#457b9d" />
      <rect x="210" width="50" height="40" rx="5" fill="#457b9d" />
      <rect x="280" width="50" height="40" rx="5" fill="#e63946" />
      <rect x="350" width="50" height="40" rx="5" fill="#457b9d" />
      <rect x="420" width="50" height="40" rx="5" fill="#e63946" />
    </g>
    
    <!-- Row 2 -->
    <g transform="translate(150, 460)">
      <rect width="50" height="40" rx="5" fill="#457b9d" />
      <rect x="70" width="50" height="40" rx="5" fill="#457b9d" />
      <rect x="140" width="50" height="40" rx="5" fill="#e63946" />
      <rect x="210" width="50" height="40" rx="5" fill="#e63946" />
      <rect x="280" width="50" height="40" rx="5" fill="#457b9d" />
      <rect x="350" width="50" height="40" rx="5" fill="#e63946" />
      <rect x="420" width="50" height="40" rx="5" fill="#457b9d" />
    </g>
    
    <!-- Row 3 -->
    <g transform="translate(150, 520)">
      <rect width="50" height="40" rx="5" fill="#e63946" />
      <rect x="70" width="50" height="40" rx="5" fill="#e63946" />
      <rect x="140" width="50" height="40" rx="5" fill="#457b9d" />
      <rect x="210" width="50" height="40" rx="5" fill="#457b9d" />
      <rect x="280" width="50" height="40" rx="5" fill="#e63946" />
      <rect x="350" width="50" height="40" rx="5" fill="#457b9d" />
      <rect x="420" width="50" height="40" rx="5" fill="#e63946" />
    </g>
  </g>
  
  <!-- Ticket -->
  <g transform="translate(600, 150) rotate(15)">
    <rect width="120" height="60" rx="5" fill="#f1faee" />
    <line x1="20" y1="0" x2="20" y2="60" stroke="#a8dadc" stroke-dasharray="2,2" />
    <circle cx="20" cy="10" r="5" fill="#a8dadc" />
    <circle cx="20" cy="50" r="5" fill="#a8dadc" />
    <rect x="40" y="15" width="60" height="10" rx="2" fill="#e63946" />
    <rect x="40" y="35" width="40" height="10" rx="2" fill="#457b9d" />
  </g>
</svg>